<?xml version="1.0" encoding="UTF-8" ?>
<svg version="1.1" width="40" height="10" xmlns="http://www.w3.org/2000/svg" shape-rendering="crispEdges">
<rect x="0" y="0" width="1" height="1" fill="#FFC400" />
<rect x="1" y="0" width="1" height="1" fill="#FFC400" />
<rect x="3" y="0" width="1" height="1" fill="#FFC400" />
<rect x="4" y="0" width="1" height="1" fill="#FFC400" />
<rect x="5" y="0" width="1" height="1" fill="#FFC400" />
<rect x="7" y="0" width="1" height="1" fill="#FFC400" />
<rect x="8" y="0" width="1" height="1" fill="#FFC400" />
<rect x="9" y="0" width="1" height="1" fill="#FFC400" />
<rect x="11" y="0" width="1" height="1" fill="#FFC400" />
<rect x="12" y="0" width="1" height="1" fill="#FFC400" />
<rect x="13" y="0" width="1" height="1" fill="#FFC400" />
<rect x="15" y="0" width="1" height="1" fill="#FFC400" />
<rect x="19" y="0" width="1" height="1" fill="#FFC400" />
<rect x="20" y="0" width="1" height="1" fill="#FFC400" />
<rect x="26" y="0" width="1" height="1" fill="#FFC400" />
<rect x="27" y="0" width="1" height="1" fill="#FFC400" />
<rect x="28" y="0" width="1" height="1" fill="#FFC400" />
<rect x="30" y="0" width="1" height="1" fill="#FFC400" />
<rect x="31" y="0" width="1" height="1" fill="#FFC400" />
<rect x="33" y="0" width="1" height="1" fill="#FFC400" />
<rect x="34" y="0" width="1" height="1" fill="#FFC400" />
<rect x="35" y="0" width="1" height="1" fill="#FFC400" />
<rect x="37" y="0" width="1" height="1" fill="#FFC400" />
<rect x="0" y="1" width="1" height="1" fill="#FFC400" />
<rect x="3" y="1" width="1" height="1" fill="#FFC400" />
<rect x="5" y="1" width="1" height="1" fill="#FFC400" />
<rect x="7" y="1" width="1" height="1" fill="#FFC400" />
<rect x="9" y="1" width="1" height="1" fill="#FFC400" />
<rect x="11" y="1" width="1" height="1" fill="#FFC400" />
<rect x="13" y="1" width="1" height="1" fill="#FFC400" />
<rect x="15" y="1" width="1" height="1" fill="#FFC400" />
<rect x="19" y="1" width="1" height="1" fill="#FFC400" />
<rect x="26" y="1" width="1" height="1" fill="#FFC400" />
<rect x="28" y="1" width="1" height="1" fill="#FFC400" />
<rect x="30" y="1" width="1" height="1" fill="#FFC400" />
<rect x="33" y="1" width="1" height="1" fill="#FFC400" />
<rect x="35" y="1" width="1" height="1" fill="#FFC400" />
<rect x="37" y="1" width="1" height="1" fill="#FFC400" />
<rect x="0" y="2" width="1" height="1" fill="#FFC400" />
<rect x="3" y="2" width="1" height="1" fill="#FFC400" />
<rect x="5" y="2" width="1" height="1" fill="#FFC400" />
<rect x="7" y="2" width="1" height="1" fill="#FFC400" />
<rect x="9" y="2" width="1" height="1" fill="#FFC400" />
<rect x="11" y="2" width="1" height="1" fill="#FFC400" />
<rect x="13" y="2" width="1" height="1" fill="#FFC400" />
<rect x="15" y="2" width="1" height="1" fill="#FFC400" />
<rect x="17" y="2" width="1" height="1" fill="#FFC400" />
<rect x="19" y="2" width="1" height="1" fill="#FFC400" />
<rect x="26" y="2" width="1" height="1" fill="#FFC400" />
<rect x="28" y="2" width="1" height="1" fill="#FFC400" />
<rect x="30" y="2" width="1" height="1" fill="#FFC400" />
<rect x="33" y="2" width="1" height="1" fill="#FFC400" />
<rect x="35" y="2" width="1" height="1" fill="#FFC400" />
<rect x="37" y="2" width="1" height="1" fill="#FFC400" />
<rect x="39" y="2" width="1" height="1" fill="#FFC400" />
<rect x="0" y="3" width="1" height="1" fill="#FFC400" />
<rect x="3" y="3" width="1" height="1" fill="#FFC400" />
<rect x="5" y="3" width="1" height="1" fill="#FFC400" />
<rect x="7" y="3" width="1" height="1" fill="#FFC400" />
<rect x="9" y="3" width="1" height="1" fill="#FFC400" />
<rect x="11" y="3" width="1" height="1" fill="#FFC400" />
<rect x="13" y="3" width="1" height="1" fill="#FFC400" />
<rect x="15" y="3" width="1" height="1" fill="#FFC400" />
<rect x="17" y="3" width="1" height="1" fill="#FFC400" />
<rect x="19" y="3" width="1" height="1" fill="#FFC400" />
<rect x="26" y="3" width="1" height="1" fill="#FFC400" />
<rect x="28" y="3" width="1" height="1" fill="#FFC400" />
<rect x="30" y="3" width="1" height="1" fill="#FFC400" />
<rect x="33" y="3" width="1" height="1" fill="#FFC400" />
<rect x="35" y="3" width="1" height="1" fill="#FFC400" />
<rect x="37" y="3" width="1" height="1" fill="#FFC400" />
<rect x="39" y="3" width="1" height="1" fill="#FFC400" />
<rect x="0" y="4" width="1" height="1" fill="#FFC400" />
<rect x="3" y="4" width="1" height="1" fill="#FFC400" />
<rect x="5" y="4" width="1" height="1" fill="#FFC400" />
<rect x="7" y="4" width="1" height="1" fill="#FFC400" />
<rect x="9" y="4" width="1" height="1" fill="#FFC400" />
<rect x="11" y="4" width="1" height="1" fill="#FFC400" />
<rect x="13" y="4" width="1" height="1" fill="#FFC400" />
<rect x="15" y="4" width="1" height="1" fill="#FFC400" />
<rect x="17" y="4" width="1" height="1" fill="#FFC400" />
<rect x="19" y="4" width="1" height="1" fill="#FFC400" />
<rect x="26" y="4" width="1" height="1" fill="#FFC400" />
<rect x="28" y="4" width="1" height="1" fill="#FFC400" />
<rect x="30" y="4" width="1" height="1" fill="#FFC400" />
<rect x="33" y="4" width="1" height="1" fill="#FFC400" />
<rect x="35" y="4" width="1" height="1" fill="#FFC400" />
<rect x="37" y="4" width="1" height="1" fill="#FFC400" />
<rect x="39" y="4" width="1" height="1" fill="#FFC400" />
<rect x="0" y="5" width="1" height="1" fill="#FFC400" />
<rect x="3" y="5" width="1" height="1" fill="#FFC400" />
<rect x="5" y="5" width="1" height="1" fill="#FFC400" />
<rect x="7" y="5" width="1" height="1" fill="#FFC400" />
<rect x="9" y="5" width="1" height="1" fill="#FFC400" />
<rect x="11" y="5" width="1" height="1" fill="#FFC400" />
<rect x="13" y="5" width="1" height="1" fill="#FFC400" />
<rect x="15" y="5" width="1" height="1" fill="#FFC400" />
<rect x="17" y="5" width="1" height="1" fill="#FFC400" />
<rect x="19" y="5" width="1" height="1" fill="#FFC400" />
<rect x="26" y="5" width="1" height="1" fill="#FFC400" />
<rect x="28" y="5" width="1" height="1" fill="#FFC400" />
<rect x="30" y="5" width="1" height="1" fill="#FFC400" />
<rect x="33" y="5" width="1" height="1" fill="#FFC400" />
<rect x="35" y="5" width="1" height="1" fill="#FFC400" />
<rect x="37" y="5" width="1" height="1" fill="#FFC400" />
<rect x="39" y="5" width="1" height="1" fill="#FFC400" />
<rect x="0" y="6" width="1" height="1" fill="#FFC400" />
<rect x="3" y="6" width="1" height="1" fill="#FFC400" />
<rect x="4" y="6" width="1" height="1" fill="#FFC400" />
<rect x="5" y="6" width="1" height="1" fill="#FFC400" />
<rect x="7" y="6" width="1" height="1" fill="#FFC400" />
<rect x="9" y="6" width="1" height="1" fill="#FFC400" />
<rect x="11" y="6" width="1" height="1" fill="#FFC400" />
<rect x="13" y="6" width="1" height="1" fill="#FFC400" />
<rect x="15" y="6" width="1" height="1" fill="#FFC400" />
<rect x="16" y="6" width="1" height="1" fill="#FFC400" />
<rect x="19" y="6" width="1" height="1" fill="#FFC400" />
<rect x="20" y="6" width="1" height="1" fill="#FFC400" />
<rect x="26" y="6" width="1" height="1" fill="#FFC400" />
<rect x="28" y="6" width="1" height="1" fill="#FFC400" />
<rect x="30" y="6" width="1" height="1" fill="#FFC400" />
<rect x="31" y="6" width="1" height="1" fill="#FFC400" />
<rect x="33" y="6" width="1" height="1" fill="#FFC400" />
<rect x="34" y="6" width="1" height="1" fill="#FFC400" />
<rect x="35" y="6" width="1" height="1" fill="#FFC400" />
<rect x="37" y="6" width="1" height="1" fill="#FFC400" />
<rect x="38" y="6" width="1" height="1" fill="#FFC400" />
<rect x="0" y="7" width="1" height="1" fill="#FFC400" />
<rect x="3" y="7" width="1" height="1" fill="#FFC400" />
<rect x="4" y="7" width="1" height="1" fill="#FFC400" />
<rect x="7" y="7" width="1" height="1" fill="#FFC400" />
<rect x="9" y="7" width="1" height="1" fill="#FFC400" />
<rect x="11" y="7" width="1" height="1" fill="#FFC400" />
<rect x="13" y="7" width="1" height="1" fill="#FFC400" />
<rect x="15" y="7" width="1" height="1" fill="#FFC400" />
<rect x="17" y="7" width="1" height="1" fill="#FFC400" />
<rect x="20" y="7" width="1" height="1" fill="#FFC400" />
<rect x="26" y="7" width="1" height="1" fill="#FFC400" />
<rect x="27" y="7" width="1" height="1" fill="#FFC400" />
<rect x="30" y="7" width="1" height="1" fill="#FFC400" />
<rect x="33" y="7" width="1" height="1" fill="#FFC400" />
<rect x="35" y="7" width="1" height="1" fill="#FFC400" />
<rect x="37" y="7" width="1" height="1" fill="#FFC400" />
<rect x="39" y="7" width="1" height="1" fill="#FFC400" />
<rect x="0" y="8" width="1" height="1" fill="#FFC400" />
<rect x="3" y="8" width="1" height="1" fill="#FFC400" />
<rect x="5" y="8" width="1" height="1" fill="#FFC400" />
<rect x="7" y="8" width="1" height="1" fill="#FFC400" />
<rect x="9" y="8" width="1" height="1" fill="#FFC400" />
<rect x="11" y="8" width="1" height="1" fill="#FFC400" />
<rect x="13" y="8" width="1" height="1" fill="#FFC400" />
<rect x="15" y="8" width="1" height="1" fill="#FFC400" />
<rect x="17" y="8" width="1" height="1" fill="#FFC400" />
<rect x="20" y="8" width="1" height="1" fill="#FFC400" />
<rect x="26" y="8" width="1" height="1" fill="#FFC400" />
<rect x="30" y="8" width="1" height="1" fill="#FFC400" />
<rect x="33" y="8" width="1" height="1" fill="#FFC400" />
<rect x="35" y="8" width="1" height="1" fill="#FFC400" />
<rect x="37" y="8" width="1" height="1" fill="#FFC400" />
<rect x="39" y="8" width="1" height="1" fill="#FFC400" />
<rect x="0" y="9" width="1" height="1" fill="#FFC400" />
<rect x="1" y="9" width="1" height="1" fill="#FFC400" />
<rect x="3" y="9" width="1" height="1" fill="#FFC400" />
<rect x="5" y="9" width="1" height="1" fill="#FFC400" />
<rect x="7" y="9" width="1" height="1" fill="#FFC400" />
<rect x="8" y="9" width="1" height="1" fill="#FFC400" />
<rect x="9" y="9" width="1" height="1" fill="#FFC400" />
<rect x="11" y="9" width="1" height="1" fill="#FFC400" />
<rect x="12" y="9" width="1" height="1" fill="#FFC400" />
<rect x="13" y="9" width="1" height="1" fill="#FFC400" />
<rect x="15" y="9" width="1" height="1" fill="#FFC400" />
<rect x="17" y="9" width="1" height="1" fill="#FFC400" />
<rect x="19" y="9" width="1" height="1" fill="#FFC400" />
<rect x="20" y="9" width="1" height="1" fill="#FFC400" />
<rect x="26" y="9" width="1" height="1" fill="#FFC400" />
<rect x="30" y="9" width="1" height="1" fill="#FFC400" />
<rect x="31" y="9" width="1" height="1" fill="#FFC400" />
<rect x="33" y="9" width="1" height="1" fill="#FFC400" />
<rect x="35" y="9" width="1" height="1" fill="#FFC400" />
<rect x="37" y="9" width="1" height="1" fill="#FFC400" />
<rect x="39" y="9" width="1" height="1" fill="#FFC400" />
</svg>